<?xml version="1.0" encoding="UTF-8"?>
<svg width="160" height="160" viewBox="0 0 160 160" xmlns="http://www.w3.org/2000/svg">
  <defs>
    <linearGradient id="gaspel-grad" x1="0%" y1="0%" x2="100%" y2="100%">
      <stop offset="0%" stop-color="#f9a24a"/>
      <stop offset="100%" stop-color="#f37a21"/>
    </linearGradient>
  </defs>
  <rect width="160" height="160" rx="26" fill="#fff6ee"/>
  <g transform="translate(30 30)" fill="url(#gaspel-grad)">
    <path d="M50 0a10 10 0 0 1 7.07 2.93l30 30a10 10 0 0 1 0 14.14l-30 30a10 10 0 0 1-14.14 0l-6.93-6.93 14.14-14.14 3.86 3.86 18.86-18.86L62 18.86l-4 4 8 8-14.14 14.14-15.07-15.07a10 10 0 0 1 0-14.14l14-14A10 10 0 0 1 50 0Z"/>
    <path d="M22 18 6 34a10 10 0 0 0 0 14.14l30 30a10 10 0 0 0 14.14 0l14-14-14.14-14.14-7.86 7.86-18.86-18.86 6.07-6.07z" opacity=".85"/>
  </g>
  <text x="80" y="24" font-family="Inter, Arial, sans-serif" font-size="14" text-anchor="middle" fill="#5c4a3d">GASPEL</text>
  <text x="80" y="148" font-family="Inter, Arial, sans-serif" font-size="10" text-anchor="middle" fill="#b9723c">Sanitarios · Calefacción</text>
</svg>
